# xmcd
#
# Track frame offsets:
#	150
#	12399
#	23775
#	35313
#	44680
#	57114
#	77541
#	90619
#	102843
#	113527
#	127089
#	141470
#	154307
#	166784
#	178575
#	189057
#	199234
#	210902
#	221161
#	233244
#	246148
#	255882
#	267722
#	279572
#	290783
#
# Disc length: 4078 seconds
#
# Revision: 0
# Processed by: cddbd v1.5.2PL0 Copyright (c) Steve Scherf et al.
# Submitted via: audiograbber 1.83.01
#
DISCID=650fec19
DTITLE=Various Artist - Th'is Country - Country Stars CD2
DYEAR=2011
DGENRE=Country
TTITLE0=Bill Monroe - Footprints In The Snow
TTITLE1=Hank Snow - Let Me Go Over
TTITLE2=Johnny Horton - Words
TTITLE3=Curtis Gordon - Baby, Baby Me
TTITLE4=Bob WIlls and The McKinney Sisters - Rose Of Old Pawnee
TTITLE5=Kitty Wells and Hank Thompson - It Wasn't God Who Made Honky Tonk Angels
TTITLE6=Jim Reeves - Butterfly Love
TTITLE7=Carl SMith - There She Goes
TTITLE8=Eddie Marshall - Moblin' Baby Of Mine
TTITLE9=Eddy Arnold - How's The World Treating You
TTITLE10=Ernest Tubb - Hobo's Meditation
TTITLE11=Hank Penny - Taxes Taxes Taxes
TTITLE12=Tex Williams - Smoke, Smoke, Smoke That Cigarette
TTITLE13=Ferlin Husky - I Feel Better All Over More Than Anywhere's Else
TTITLE14=George Jones - Why, Baby, Why
TTITLE15=Hank Snow - Southern Cannonball
TTITLE16=Jim Reeves - Teardrops Of Regret
TTITLE17=Johnny Cash - Hey Porter
TTITLE18=Lester Flatt and Earl Scruggs - Come Back Darling
TTITLE19=Red Foley - Chattanooga Shoe Shine Boy
TTITLE20=Carl Smith - Go Boy Go
TTITLE21=Red Foley and Kitty Wells - As Long As I Live
TTITLE22=Tennessee Ernie Ford - Sixteen Tons
TTITLE23=Hank Snow - These Things Shall Pass
TTITLE24=The Weawers w. Godron Jenkins - Goodnight Irene
EXTD=
EXTT0=
EXTT1=
EXTT2=
EXTT3=
EXTT4=
EXTT5=
EXTT6=
EXTT7=
EXTT8=
EXTT9=
EXTT10=
EXTT11=
EXTT12=
EXTT13=
EXTT14=
EXTT15=
EXTT16=
EXTT17=
EXTT18=
EXTT19=
EXTT20=
EXTT21=
EXTT22=
EXTT23=
EXTT24=
PLAYORDER=
